# xmcd
#
# Track frame offsets:
#	150
#	20264
#	45522
#	61593
#	82620
#	101508
#	116995
#	130870
#	149486
#
# Disc length: 2214 seconds
#
# Revision: 4
# Processed by: cddbd v1.5.2PL0 Copyright (c) Steve Scherf et al.
# Submitted via: audiograbber 1.83.01
#
DISCID=6b08a409
DTITLE=Earl Klugh - Finger Paintings [SHM-CD]
DYEAR=1977
DGENRE=Jazz
TTITLE0=Dr. Macumba
TTITLE1=Long Ago And Far Away
TTITLE2=Cabo Frio
TTITLE3=Keep Your Eye On The Sparrow (Baretta's Theme)
TTITLE4=Catherine
TTITLE5=Dance With Me
TTITLE6=Jolanta
TTITLE7=Summer Song
TTITLE8=This Time
EXTD=
EXTT0=
EXTT1=
EXTT2=
EXTT3=
EXTT4=
EXTT5=
EXTT6=
EXTT7=
EXTT8=
PLAYORDER=
